<svg width="919" height="900" viewBox="0 0 919 900" fill="none" xmlns="http://www.w3.org/2000/svg">
<g opacity="0.35">
<path fill-rule="evenodd" clip-rule="evenodd" d="M446.719 761.295C422.443 808.756 399.431 872.644 346.973 882.133C292.643 891.961 255.117 826.287 204.098 805.183C164.28 788.711 111.234 803.851 81.7548 772.422C52.2914 741.01 75.7158 687.052 56.9403 648.293C28.2868 589.142 -75.7653 552.929 -54.735 490.658C-34.197 429.846 71.4958 472.485 127.128 440.469C173.478 413.794 180.094 322.446 233.522 324.765C289.295 327.185 294.828 416.752 339.893 449.702C376.8 476.686 438.67 458.682 466.398 495.034C494.085 531.333 479.895 583.307 476.53 628.836C473.126 674.904 467.754 720.17 446.719 761.295Z" stroke="#BA6C40" stroke-opacity="0.3" stroke-width="3"/>
<path opacity="0.95875" fill-rule="evenodd" clip-rule="evenodd" d="M440.923 755.991C415.006 802.575 389.778 865.621 337.021 873.274C282.381 881.199 247.17 814.256 196.919 791.384C157.7 773.533 104.158 786.812 75.7932 754.373C47.444 721.952 72.7372 668.845 55.3259 629.454C28.7542 569.339 -73.9707 529.516 -50.78 468.018C-28.1322 407.959 76.0081 454.261 132.724 424.206C179.977 399.165 189.776 308.104 243.09 312.285C298.746 316.651 301.15 406.356 345.037 440.858C380.98 469.115 443.44 453.281 469.882 490.578C496.286 527.821 480.291 579.269 475.339 624.652C470.329 670.573 463.381 715.624 440.923 755.991Z" stroke="#BA6C40" stroke-opacity="0.3" stroke-width="3"/>
<path opacity="0.9175" fill-rule="evenodd" clip-rule="evenodd" d="M435.316 750.488C407.789 796.14 380.376 858.267 327.384 864.073C272.501 870.087 239.647 801.956 190.225 777.344C151.653 758.135 97.6801 769.537 70.465 736.129C43.2645 702.738 70.3958 650.545 54.3698 610.571C29.9123 549.565 -71.3603 506.182 -46.0375 445.53C-21.3074 386.298 81.1535 436.207 138.883 408.149C186.981 384.772 199.953 294.109 253.089 300.148C308.558 306.453 307.83 396.188 350.487 432.201C385.421 461.695 448.396 448.05 473.521 486.248C498.608 524.389 480.828 575.247 474.295 620.431C467.685 666.148 459.169 710.929 435.316 750.488Z" stroke="#BA6C40" stroke-opacity="0.3" stroke-width="3"/>
<path opacity="0.87625" fill-rule="evenodd" clip-rule="evenodd" d="M429.905 744.792C400.801 789.456 371.236 850.588 318.074 854.542C263.015 858.637 232.559 789.4 184.026 763.078C146.147 742.535 91.8093 752.047 65.7767 717.709C39.7581 683.389 68.6944 632.175 54.0732 591.666C31.7597 529.844 -67.9372 482.953 -40.513 423.222C-13.7309 364.889 86.9258 418.343 145.6 392.317C194.484 370.633 210.612 280.477 263.505 288.368C318.72 296.605 314.861 386.26 356.235 423.739C390.119 454.434 453.531 442.995 477.308 482.047C501.049 521.041 481.504 571.247 473.398 616.175C465.197 661.634 455.123 706.091 429.905 744.792Z" stroke="#BA6C40" stroke-opacity="0.3" stroke-width="3"/>
<path opacity="0.835" fill-rule="evenodd" clip-rule="evenodd" d="M424.695 738.912C394.05 782.532 362.37 842.596 309.102 844.692C253.934 846.862 225.912 776.605 178.328 748.606C141.189 726.753 86.5526 734.363 61.7342 699.137C36.9292 663.93 67.6352 613.757 54.4367 572.762C34.2943 510.199 -63.7053 459.857 -34.2133 401.12C-5.41174 343.757 93.3182 400.691 152.865 376.729C202.476 356.764 221.741 267.226 274.326 276.958C329.22 287.117 322.234 376.582 362.275 415.483C395.067 447.342 458.84 438.123 481.239 477.98C503.605 517.779 482.32 567.273 472.651 611.891C462.868 657.036 451.249 701.114 424.695 738.912Z" stroke="#BA6C40" stroke-opacity="0.3" stroke-width="3"/>
<path opacity="0.79375" fill-rule="evenodd" clip-rule="evenodd" d="M419.694 732.853C387.546 775.377 353.788 834.299 300.48 834.534C245.269 834.778 219.717 763.586 173.138 733.943C136.785 710.807 81.9162 716.506 58.3423 680.435C34.7811 644.384 67.2194 595.313 55.4597 553.883C37.513 490.655 -58.67 436.923 -27.1461 379.251C3.63986 322.929 100.323 383.274 160.669 361.404C210.947 343.183 233.325 254.372 285.538 265.933C340.044 278.001 329.94 367.168 368.599 407.443C400.259 440.427 464.315 433.439 485.31 474.054C506.273 514.609 483.274 563.33 472.054 607.583C460.701 652.359 447.551 696.005 419.694 732.853Z" stroke="#BA6C40" stroke-opacity="0.3" stroke-width="3"/>
<path opacity="0.7525" fill-rule="evenodd" clip-rule="evenodd" d="M414.907 726.623C381.295 768 345.502 825.707 292.217 824.082C237.032 822.399 213.98 750.358 168.464 719.108C132.94 694.718 77.9058 698.498 55.6052 661.627C33.3165 624.775 67.4476 576.866 57.1409 535.05C41.4117 471.234 -52.8375 414.179 -19.3201 357.642C13.4128 302.429 107.931 366.111 169.004 346.361C219.887 329.905 245.35 241.929 297.129 255.306C351.18 269.269 337.97 358.029 375.2 399.628C405.69 433.697 469.951 428.949 489.515 470.272C509.05 511.534 484.364 559.422 471.607 603.257C458.699 647.61 444.033 690.77 414.907 726.623Z" stroke="#BA6C40" stroke-opacity="0.3" stroke-width="3"/>
<path opacity="0.71125" fill-rule="evenodd" clip-rule="evenodd" d="M410.341 720.23C375.305 760.409 337.52 816.832 284.325 813.348C229.231 809.74 208.707 736.939 164.31 704.119C129.659 678.504 74.5264 680.361 53.5261 642.734C32.5371 605.127 68.3194 558.438 59.4783 516.288C45.9859 451.962 -46.2147 391.653 -10.7446 336.32C23.8953 282.282 116.133 349.224 177.858 331.617C229.285 316.948 257.803 229.914 309.083 245.089C362.614 260.931 346.315 349.176 382.07 392.049C411.352 427.161 475.74 424.659 493.85 466.639C511.933 508.558 485.591 555.555 471.312 598.918C456.863 642.793 440.7 685.415 410.341 720.23Z" stroke="#BA6C40" stroke-opacity="0.3" stroke-width="3"/>
<path opacity="0.67" fill-rule="evenodd" clip-rule="evenodd" d="M406 713.682C369.583 752.613 329.852 807.683 276.811 802.345C221.877 796.817 203.907 723.343 160.682 688.994C126.946 662.185 71.782 662.117 52.1076 623.78C32.4439 585.464 69.8338 540.052 62.4691 497.619C51.2299 432.862 -38.8098 369.371 -1.43018 315.31C35.0744 262.514 124.92 332.634 187.222 317.192C239.129 304.326 270.667 218.341 321.386 235.297C374.332 252.996 354.963 340.619 389.2 384.714C417.239 420.826 481.675 420.573 498.309 463.159C514.918 505.684 486.952 551.733 471.168 594.571C455.197 637.915 437.557 679.947 406 713.682Z" stroke="#BA6C40" stroke-opacity="0.3" stroke-width="3"/>
<path opacity="0.62875" fill-rule="evenodd" clip-rule="evenodd" d="M401.891 706.986C364.138 744.623 322.509 798.272 269.686 791.086C214.979 783.644 199.583 709.589 157.583 673.751C124.804 645.782 69.6759 643.788 51.3515 604.788C33.0369 565.809 71.9889 521.73 66.1096 479.066C57.1372 413.955 -30.6318 347.361 8.61176 294.637C46.9367 243.148 134.28 316.361 197.083 303.102C249.408 292.056 283.928 207.224 334.024 225.939C386.32 245.476 363.905 332.369 396.582 377.632C423.344 414.701 487.749 416.696 502.886 459.837C518.002 502.916 488.445 547.961 471.176 590.222C453.702 632.983 434.605 674.373 401.891 706.986Z" stroke="#BA6C40" stroke-opacity="0.3" stroke-width="3"/>
<path opacity="0.5875" fill-rule="evenodd" clip-rule="evenodd" d="M398.018 700.151C358.974 736.447 315.498 788.611 262.959 779.586C208.544 770.239 195.743 695.691 155.019 658.41C123.236 629.313 68.2108 625.397 51.2586 585.781C34.3156 546.187 74.7822 503.494 70.3954 460.651C63.7008 395.267 -21.6907 325.65 19.3691 274.328C59.4676 224.207 144.203 300.424 207.43 289.366C260.108 280.152 297.568 196.576 346.981 217.028C398.563 238.378 373.129 324.436 404.206 370.812C429.658 408.792 493.955 413.034 507.577 456.677C521.18 500.257 490.069 544.244 471.336 585.876C452.38 628.001 431.851 668.7 398.018 700.151Z" stroke="#BA6C40" stroke-opacity="0.3" stroke-width="3"/>
<path opacity="0.54625" fill-rule="evenodd" clip-rule="evenodd" d="M394.386 693.185C354.099 728.096 308.829 778.711 256.637 767.858C202.582 756.618 192.389 681.668 152.992 642.989C122.243 612.801 67.3884 606.967 51.8292 566.783C36.2783 526.621 78.2102 485.367 75.3213 442.397C70.9126 376.819 -11.9972 304.264 30.8286 254.406C72.6519 205.716 154.676 284.843 218.25 275.998C271.218 268.629 311.572 186.411 360.24 208.575C411.046 231.712 382.624 316.83 412.064 364.262C436.175 403.108 500.284 409.591 512.375 453.683C524.449 497.711 491.822 540.585 471.647 581.538C451.233 622.976 429.295 662.933 394.386 693.185Z" stroke="#BA6C40" stroke-opacity="0.3" stroke-width="3"/>
<path opacity="0.505" fill-rule="evenodd" clip-rule="evenodd" d="M390.999 686.096C349.518 719.58 302.51 768.584 250.728 755.916C197.098 742.796 189.528 667.537 151.504 627.506C121.827 596.263 67.2098 588.518 53.0624 547.816C38.9226 507.136 82.2687 467.37 80.8812 424.325C78.7639 358.634 -1.56337 283.23 42.9764 234.897C86.4735 187.695 165.686 269.638 229.53 263.016C282.723 257.5 325.921 176.741 373.787 200.59C423.754 225.486 392.379 309.56 420.146 357.991C442.886 397.654 506.73 406.371 517.275 450.858C527.805 495.28 493.702 536.99 472.109 577.214C450.262 617.913 426.943 657.081 390.999 686.096Z" stroke="#BA6C40" stroke-opacity="0.3" stroke-width="3"/>
<path opacity="0.46375" fill-rule="evenodd" clip-rule="evenodd" d="M387.862 678.893C345.238 710.909 296.547 758.243 245.239 743.776C192.1 728.792 187.161 653.314 150.557 611.981C121.989 579.721 67.6751 570.075 54.9568 528.904C42.2453 487.755 86.9528 449.527 87.0685 406.459C87.245 340.734 9.59821 262.572 55.7976 215.823C100.916 170.169 177.22 254.825 241.257 250.436C294.609 246.78 340.6 167.577 387.604 193.082C436.672 219.707 402.381 302.635 428.441 352.005C449.784 392.438 513.284 403.378 522.271 448.206C531.243 492.968 495.706 533.462 472.723 572.908C449.468 612.821 424.796 651.151 387.862 678.893Z" stroke="#BA6C40" stroke-opacity="0.3" stroke-width="3"/>
<path opacity="0.4225" fill-rule="evenodd" clip-rule="evenodd" d="M384.978 671.585C341.262 702.094 290.95 747.7 240.178 731.451C187.594 714.622 185.291 639.018 150.153 596.432C122.728 563.195 68.7838 551.659 57.51 510.07C46.2424 468.502 92.2568 431.857 93.8754 388.82C96.3456 323.141 21.474 242.317 69.2767 197.209C115.961 153.156 189.264 240.425 253.415 238.273C306.863 236.481 355.589 158.932 401.675 186.062C449.783 214.383 412.62 296.063 436.941 346.313C456.859 387.466 519.939 400.615 527.355 445.729C534.761 490.778 497.831 530.007 473.486 568.626C448.852 607.703 422.858 645.149 384.978 671.585Z" stroke="#BA6C40" stroke-opacity="0.3" stroke-width="3"/>
<path opacity="0.38125" fill-rule="evenodd" clip-rule="evenodd" d="M382.351 664.181C337.597 693.146 285.723 736.968 235.549 718.957C183.585 700.303 183.922 624.665 150.291 580.879C124.043 546.705 70.5344 533.293 60.719 491.335C50.9089 449.4 98.1742 414.383 101.294 371.429C106.055 305.876 34.0493 222.489 83.3973 179.076C131.59 136.68 201.803 226.453 265.99 226.542C319.468 226.616 370.871 150.814 415.982 179.536C463.073 209.519 423.081 289.853 445.634 340.921C464.104 382.744 526.687 398.086 532.524 443.432C538.352 488.711 500.076 526.627 474.398 564.374C448.415 602.567 421.13 639.083 382.351 664.181Z" stroke="#BA6C40" stroke-opacity="0.3" stroke-width="3"/>
<path opacity="0.34" fill-rule="evenodd" clip-rule="evenodd" d="M379.983 656.69C334.246 684.075 280.875 726.06 231.36 706.309C180.078 685.853 183.055 610.273 150.973 565.339C125.933 530.27 72.9251 515 64.58 472.725C56.2394 430.473 104.698 397.127 109.315 354.307C116.36 288.96 47.3091 203.111 98.1421 161.447C147.785 120.759 214.822 212.927 278.967 215.256C332.41 217.197 386.427 143.235 430.508 173.514C476.524 205.122 433.753 284.011 454.51 335.835C471.509 378.277 533.518 395.794 537.769 441.316C542.014 486.771 502.438 523.329 475.458 560.156C448.158 597.419 419.615 632.961 379.983 656.69Z" stroke="#BA6C40" stroke-opacity="0.3" stroke-width="3"/>
<path opacity="0.29875" fill-rule="evenodd" clip-rule="evenodd" d="M377.879 649.121C331.214 674.893 276.41 714.99 227.614 693.523C177.077 671.29 182.691 595.859 152.196 549.834C128.396 513.912 75.9526 496.801 69.088 454.26C62.227 411.743 111.82 380.108 117.928 337.476C127.25 272.415 61.237 184.208 113.493 144.344C164.526 105.412 228.305 199.865 292.33 204.431C345.673 208.235 402.238 136.204 445.235 168.002C490.12 201.197 444.622 278.546 463.558 331.062C479.065 374.072 540.425 393.742 543.085 439.385C545.741 484.96 504.913 520.114 476.664 555.978C448.081 592.265 418.315 626.789 377.879 649.121Z" stroke="#BA6C40" stroke-opacity="0.3" stroke-width="3"/>
<path opacity="0.2575" fill-rule="evenodd" clip-rule="evenodd" d="M376.04 641.483C328.504 665.611 272.334 703.771 224.317 680.614C174.587 656.63 182.829 581.442 153.959 534.38C131.427 497.65 79.6134 478.718 74.2376 435.964C68.8647 393.233 119.531 363.349 127.124 320.956C138.711 256.26 75.8161 165.803 129.432 127.786C181.792 90.6595 242.236 187.28 306.063 194.078C359.24 199.741 418.285 129.728 460.146 163.008C503.845 197.749 455.675 273.463 472.766 326.608C486.764 370.133 547.4 391.933 548.465 437.64C549.529 483.281 507.499 516.988 478.015 551.844C448.183 587.112 417.231 620.576 376.04 641.483Z" stroke="#BA6C40" stroke-opacity="0.3" stroke-width="3"/>
<path opacity="0.21625" fill-rule="evenodd" clip-rule="evenodd" d="M374.469 633.786C326.119 656.24 268.652 692.416 221.473 667.597C172.61 641.893 183.471 567.038 156.261 518.997C135.025 481.503 83.9032 460.775 80.0227 417.859C76.1444 374.967 127.823 346.869 136.89 304.767C150.728 240.514 91.0288 147.917 145.938 111.795C199.563 76.5184 256.598 175.19 320.148 184.211C373.095 191.727 434.548 123.817 475.222 158.537C517.682 194.782 466.899 268.768 482.125 322.478C494.595 366.464 554.433 390.368 553.903 436.084C553.373 481.734 510.192 513.954 479.51 547.76C448.465 581.965 416.364 614.329 374.469 633.786Z" stroke="#BA6C40" stroke-opacity="0.3" stroke-width="3"/>
<path opacity="0.175" fill-rule="evenodd" clip-rule="evenodd" d="M373.167 626.038C324.063 646.791 265.368 680.94 219.084 654.49C171.148 627.096 184.615 552.665 159.099 503.704C139.184 465.491 88.8165 442.992 86.4361 399.967C84.057 356.965 136.685 330.688 147.216 288.928C163.288 225.197 106.856 130.574 162.993 96.3897C217.816 63.0061 271.373 163.608 334.57 174.841C387.222 184.2 451.007 118.477 490.445 154.595C531.614 192.3 478.28 264.469 491.622 318.677C502.549 363.072 561.517 389.049 559.391 434.719C557.269 480.323 512.99 511.016 481.147 543.731C448.927 576.832 415.716 608.055 373.167 626.038Z" stroke="#BA6C40" stroke-opacity="0.3" stroke-width="3"/>
<path opacity="0.13375" fill-rule="evenodd" clip-rule="evenodd" d="M372.136 618.25C322.339 637.276 262.487 669.356 217.154 641.306C170.204 612.256 186.26 538.341 162.468 488.519C143.899 449.635 94.3474 425.391 93.47 382.31C92.5932 339.251 146.106 314.826 158.088 273.459C176.374 210.329 123.28 113.793 180.575 81.589C236.529 50.139 286.543 152.548 349.309 165.981C401.603 177.172 467.643 113.714 505.796 151.187C545.624 190.306 489.804 260.569 501.247 315.21C510.617 359.959 568.643 387.978 564.924 433.546C561.211 479.048 515.889 508.178 482.923 539.761C449.568 571.717 415.287 601.762 372.136 618.25Z" stroke="#BA6C40" stroke-opacity="0.3" stroke-width="3"/>
<path opacity="0.0925" fill-rule="evenodd" clip-rule="evenodd" d="M371.378 610.43C320.947 627.707 260.013 657.678 215.686 628.064C169.778 597.393 188.404 524.083 166.365 473.461C149.164 433.953 100.489 407.995 101.116 364.909C101.742 321.846 156.075 299.303 169.494 258.38C189.972 195.925 140.278 97.5955 198.663 67.4109C255.681 37.9328 302.09 142.025 364.349 157.64C416.22 170.649 484.435 109.535 521.257 148.317C559.696 188.801 501.457 257.074 510.986 312.081C518.789 357.13 575.801 387.157 570.495 432.568C565.196 477.912 518.884 505.442 484.837 535.855C450.387 566.628 415.078 595.459 371.378 610.43Z" stroke="#BA6C40" stroke-opacity="0.3" stroke-width="3"/>
<path opacity="0.05125" fill-rule="evenodd" clip-rule="evenodd" d="M370.894 602.589C319.89 618.095 257.947 645.922 214.681 614.778C169.871 582.524 191.045 509.909 170.785 458.549C154.974 418.464 107.234 390.823 109.364 347.785C111.493 304.77 166.58 284.137 181.418 243.707C204.063 182.006 157.832 82.0013 217.234 53.8727C275.246 26.4024 317.995 132.051 379.671 149.829C431.057 164.641 501.362 105.944 536.808 145.988C573.811 187.789 513.225 253.988 520.828 309.294C527.055 354.587 582.984 386.586 576.096 431.784C569.218 476.916 521.974 502.813 486.886 532.019C451.382 561.571 415.089 589.152 370.894 602.589Z" stroke="#BA6C40" stroke-opacity="0.3" stroke-width="3"/>
<path opacity="0.01" fill-rule="evenodd" clip-rule="evenodd" d="M370.683 594.736C319.169 608.454 256.293 634.101 214.14 601.467C170.483 567.668 194.178 495.836 175.723 443.8C161.32 403.188 114.575 373.898 118.206 330.96C121.834 288.046 177.607 269.349 193.848 229.461C218.632 168.587 175.919 67.0303 236.267 40.9918C295.202 15.5629 334.237 122.639 395.256 142.559C446.093 159.155 518.405 102.948 552.432 144.204C587.953 187.271 525.094 251.315 530.762 306.852C535.404 352.336 590.183 386.267 581.721 431.197C573.273 476.061 525.153 500.294 489.067 528.258C452.554 556.553 415.321 582.85 370.683 594.736Z" stroke="#BA6C40" stroke-opacity="0.3" stroke-width="3"/>
</g>
</svg>
